{"title":"Redlight King - Born To Rise [Music Video] 720p [Sbyky]","uid":9848880,"size":50978388,"categoryP":"video","categoryS":"music_videos","magnet":"?xt=urn:btih:5444a72e7366ebd4c53279aa0f979193e0bb19b5&amp;dn=Redlight+King+-+Born+To+Rise+%5BMusic+Video%5D+720p+%5BSbyky%5D&amp;tr=udp%3A%2F%2Ftracker.openbittorrent.com%3A80&amp;tr=udp%3A%2F%2Fopen.demonii.com%3A1337&amp;tr=udp%3A%2F%2Ftracker.coppersurfer.tk%3A6969&amp;tr=udp%3A%2F%2Fexodus.desync.com%3A6969","seeders":1,"leechers":1,"uploader":"Sbyky","files":1,"time":1396120267,"description":"\n\nGeneral\nComplete name                            : Redlight King - Born To Rise [Music Video] 720p [Sbyky].MP4\nFormat                                   : MPEG-4\nFormat profile                           : Base Media\nCodec ID                                 : isom\nFile size                                : 48.6 MiB\nDuration                                 : 3mn 51s\nOverall bit rate mode                    : Variable\nOverall bit rate                         : 1 764 Kbps\nEncoded date                             : UTC 2014-01-02 10:09:50\nTagged date                              : UTC 2014-01-02 10:09:50\n\nVideo\nID                                       : 1\nFormat                                   : AVC\nFormat/Info                              : Advanced Video Codec\nFormat profile                           : &lt;a class=&quot;__cf_email__&quot; href=&quot;/cdn-cgi/l/email-protection&quot; data-cfemail=&quot;ce83afa7a08e82fde0ff&quot;&gt;[email&amp;#160;protected]&lt;/a&gt;&lt;script cf-hash='f9e31' type=&quot;text/javascript&quot;&gt;\n/* &lt;![CDATA[ */!function(){try{var t=&quot;currentScript&quot;in document?document.currentScript:function(){for(var t=document.getElementsByTagName(&quot;script&quot;),e=t.length;e--;)if(t[e].getAttribute(&quot;cf-hash&quot;))return t[e]}();if(t&amp;&amp;t.previousSibling){var e,r,n,i,c=t.previousSibling,a=c.getAttribute(&quot;data-cfemail&quot;);if(a){for(e=&quot;&quot;,r=parseInt(a.substr(0,2),16),n=2;a.length-n;n+=2)i=parseInt(a.substr(n,2),16)^r,e+=String.fromCharCode(i);e=document.createTextNode(e),c.parentNode.replaceChild(e,c)}}}catch(u){}}();/* ]]&gt; */&lt;/script&gt;\nFormat settings, CABAC                   : Yes\nFormat settings, ReFrames                : 3 frames\nCodec ID                                 : avc1\nCodec ID/Info                            : Advanced Video Coding\nDuration                                 : 3mn 51s\nDuration_LastFrame                       : -42ms\nBit rate                                 : 1 635 Kbps\nWidth                                    : 1 280 pixels\nHeight                                   : 720 pixels\nDisplay aspect ratio                     : 16:9\nFrame rate mode                          : Constant\nFrame rate                               : 23.976 fps\nColor space                              : YUV\nChroma subsampling                       : 4:2:0\nBit depth                                : 8 bits\nScan type                                : Progressive\nBits/(Pixel*Frame)                       : 0.074\nStream size                              : 45.1 MiB (93%)\nEncoded date                             : UTC 2014-01-02 10:09:50\nTagged date                              : UTC 2014-01-02 10:09:50\n\nAudio\nID                                       : 2\nFormat                                   : AAC\nFormat/Info                              : Advanced Audio Codec\nFormat profile                           : LC\nCodec ID                                 : 40\nDuration                                 : 3mn 51s\nBit rate mode                            : Variable\nBit rate                                 : 126 Kbps\nChannel(s)                               : 2 channels\nChannel positions                        : Front: L R\nSampling rate                            : 44.1 KHz\nCompression mode                         : Lossy\nStream size                              : 3.46 MiB (7%)\nEncoded date                             : UTC 2014-01-02 07:36:26\nTagged date                              : UTC 2014-01-02 07:36:26\n\nShared By Sbyky\n","torrent":{"xt":"urn:btih:5444a72e7366ebd4c53279aa0f979193e0bb19b5","amp;dn":"Redlight+King+-+Born+To+Rise+%5BMusic+Video%5D+720p+%5BSbyky%5D","amp;tr":["udp%3A%2F%2Ftracker.openbittorrent.com%3A80","udp%3A%2F%2Fopen.demonii.com%3A1337","udp%3A%2F%2Ftracker.coppersurfer.tk%3A6969","udp%3A%2F%2Fexodus.desync.com%3A6969"],"infoHash":"5444a72e7366ebd4c53279aa0f979193e0bb19b5","infoHashBuffer":{"type":"Buffer","data":[84,68,167,46,115,102,235,212,197,50,121,170,15,151,145,147,224,187,25,181]},"announce":[],"urlList":[]}}